<?xml version="1.0" encoding="UTF-8" standalone="no"?>
<!-- Created with Inkscape (http://www.inkscape.org/) -->

<svg
   xmlns:dc="http://purl.org/dc/elements/1.1/"
   xmlns:cc="http://creativecommons.org/ns#"
   xmlns:rdf="http://www.w3.org/1999/02/22-rdf-syntax-ns#"
   xmlns:svg="http://www.w3.org/2000/svg"
   xmlns="http://www.w3.org/2000/svg"
   xmlns:sodipodi="http://sodipodi.sourceforge.net/DTD/sodipodi-0.dtd"
   xmlns:inkscape="http://www.inkscape.org/namespaces/inkscape"
   width="655.82513"
   height="455.74045"
   id="svg4382"
   version="1.1"
   inkscape:version="0.48.5 r10040"
   sodipodi:docname="holodex-design-4.svg">
  <defs
     id="defs4384" />
  <sodipodi:namedview
     id="base"
     pagecolor="#ffffff"
     bordercolor="#666666"
     borderopacity="1.0"
     inkscape:pageopacity="0.0"
     inkscape:pageshadow="2"
     inkscape:zoom="0.98994949"
     inkscape:cx="390.0102"
     inkscape:cy="343.93096"
     inkscape:document-units="px"
     inkscape:current-layer="g4572"
     showgrid="false"
     fit-margin-top="0"
     fit-margin-left="0"
     fit-margin-right="0"
     fit-margin-bottom="0"
     inkscape:window-width="834"
     inkscape:window-height="553"
     inkscape:window-x="492"
     inkscape:window-y="143"
     inkscape:window-maximized="0" />
  <metadata
     id="metadata4387">
    <rdf:RDF>
      <cc:Work
         rdf:about="">
        <dc:format>image/svg+xml</dc:format>
        <dc:type
           rdf:resource="http://purl.org/dc/dcmitype/StillImage" />
      </cc:Work>
    </rdf:RDF>
  </metadata>
  <g
     inkscape:label="Layer 1"
     inkscape:groupmode="layer"
     id="layer1"
     transform="translate(-40.658859,-358.77767)">
    <path
       sodipodi:type="arc"
       style="fill:none;stroke:#000000;stroke-width:8;stroke-linecap:butt;stroke-linejoin:round;stroke-miterlimit:3.79999995;stroke-opacity:1;stroke-dasharray:none"
       id="path3009"
       sodipodi:cx="94.285713"
       sodipodi:cy="129.50504"
       sodipodi:rx="62.857143"
       sodipodi:ry="60"
       d="m 157.14286,129.50504 c 0,33.13708 -28.14211,60 -62.857147,60 -34.715042,0 -62.857143,-26.86292 -62.857143,-60 0,-33.13709 28.142101,-60.000005 62.857143,-60.000005 34.705877,0 62.844187,26.84927 62.857137,59.977605"
       sodipodi:start="0"
       sodipodi:end="6.2828121"
       sodipodi:open="true"
       transform="matrix(0.42518765,0,0,0.42518765,233.36496,360.29405)" />
    <path
       transform="matrix(0.42518765,0,0,0.42518765,232.15014,529.15429)"
       sodipodi:type="arc"
       style="fill:none;stroke:#000000;stroke-width:8;stroke-linecap:butt;stroke-linejoin:round;stroke-miterlimit:3.79999995;stroke-opacity:1;stroke-dasharray:none"
       id="path3009-6"
       sodipodi:cx="94.285713"
       sodipodi:cy="129.50504"
       sodipodi:rx="62.857143"
       sodipodi:ry="60"
       d="m 157.14286,129.50504 c 0,33.13708 -28.14211,60 -62.857147,60 -34.715042,0 -62.857143,-26.86292 -62.857143,-60 0,-33.13709 28.142101,-60.000005 62.857143,-60.000005 34.705877,0 62.844187,26.84927 62.857137,59.977605"
       sodipodi:start="0"
       sodipodi:end="6.2828121"
       sodipodi:open="true" />
    <path
       transform="matrix(0.42518765,0,0,0.42518765,233.36496,712.59239)"
       sodipodi:type="arc"
       style="fill:none;stroke:#000000;stroke-width:8;stroke-linecap:butt;stroke-linejoin:round;stroke-miterlimit:3.79999995;stroke-opacity:1;stroke-dasharray:none"
       id="path3009-0"
       sodipodi:cx="94.285713"
       sodipodi:cy="129.50504"
       sodipodi:rx="62.857143"
       sodipodi:ry="60"
       d="m 157.14286,129.50504 c 0,33.13708 -28.14211,60 -62.857147,60 -34.715042,0 -62.857143,-26.86292 -62.857143,-60 0,-33.13709 28.142101,-60.000005 62.857143,-60.000005 34.705877,0 62.844187,26.84927 62.857137,59.977605"
       sodipodi:start="0"
       sodipodi:end="6.2828121"
       sodipodi:open="true" />
    <path
       transform="matrix(0.42518765,0,0,0.42518765,223.64638,702.87381)"
       sodipodi:type="arc"
       style="fill:none;stroke:#000000;stroke-width:8;stroke-linecap:butt;stroke-linejoin:round;stroke-miterlimit:3.79999995;stroke-opacity:1;stroke-dasharray:none"
       id="path3009-0-9"
       sodipodi:cx="94.285713"
       sodipodi:cy="129.50504"
       sodipodi:rx="62.857143"
       sodipodi:ry="60"
       d="m 157.14286,129.50504 c 0,33.13708 -28.14211,60 -62.857147,60 -34.715042,0 -62.857143,-26.86292 -62.857143,-60 0,-33.13709 28.142101,-60.000005 62.857143,-60.000005 34.705877,0 62.844187,26.84927 62.857137,59.977605"
       sodipodi:start="0"
       sodipodi:end="6.2828121"
       sodipodi:open="true" />
    <path
       transform="matrix(0.42518765,0,0,0.42518765,241.86872,701.659)"
       sodipodi:type="arc"
       style="fill:none;stroke:#000000;stroke-width:8;stroke-linecap:butt;stroke-linejoin:round;stroke-miterlimit:3.79999995;stroke-opacity:1;stroke-dasharray:none"
       id="path3009-0-5"
       sodipodi:cx="94.285713"
       sodipodi:cy="129.50504"
       sodipodi:rx="62.857143"
       sodipodi:ry="60"
       d="m 157.14286,129.50504 c 0,33.13708 -28.14211,60 -62.857147,60 -34.715042,0 -62.857143,-26.86292 -62.857143,-60 0,-33.13709 28.142101,-60.000005 62.857143,-60.000005 34.705877,0 62.844187,26.84927 62.857137,59.977605"
       sodipodi:start="0"
       sodipodi:end="6.2828121"
       sodipodi:open="true" />
    <path
       style="fill:none;stroke:#000000;stroke-width:2.12593842;stroke-linecap:butt;stroke-linejoin:miter;stroke-miterlimit:4;stroke-opacity:1;stroke-dasharray:none"
       d="m 273.45408,411.71352 c -2.42964,30.37056 0,177.36401 0,177.36401 l -2.42964,170.07506"
       id="path3061"
       inkscape:connector-curvature="0" />
    <path
       sodipodi:type="arc"
       style="fill:#d000fe;fill-opacity:1;stroke:none"
       id="path3831"
       sodipodi:cx="92.85714"
       sodipodi:cy="535.2193"
       sodipodi:rx="44.285713"
       sodipodi:ry="37.142857"
       d="m 137.14285,535.2193 c 0,20.51343 -19.82739,37.14286 -44.28571,37.14286 -24.458324,0 -44.285714,-16.62943 -44.285714,-37.14286 0,-20.51343 19.82739,-37.14286 44.285714,-37.14286 24.45187,0 44.27658,16.62098 44.28571,37.129"
       sodipodi:start="0"
       sodipodi:end="6.2828121"
       sodipodi:open="true"
       transform="matrix(0.42518765,0,0,0.42518765,233.36496,357.8644)" />
    <path
       transform="matrix(0.28890955,0,0,0.28890955,317.28111,542.64768)"
       sodipodi:type="arc"
       style="fill:none;stroke:#000000;stroke-width:8;stroke-linecap:butt;stroke-linejoin:round;stroke-miterlimit:3.79999995;stroke-opacity:1;stroke-dasharray:none"
       id="path3009-6-6"
       sodipodi:cx="94.285713"
       sodipodi:cy="129.50504"
       sodipodi:rx="62.857143"
       sodipodi:ry="60"
       d="m 157.14286,129.50504 c 0,33.13708 -28.14211,60 -62.857147,60 -34.715042,0 -62.857143,-26.86292 -62.857143,-60 0,-33.13709 28.142101,-60.000005 62.857143,-60.000005 34.705877,0 62.844187,26.84927 62.857137,59.977605"
       sodipodi:start="0"
       sodipodi:end="6.2828121"
       sodipodi:open="true" />
    <path
       transform="matrix(0.28890955,0,0,0.28890955,356.76282,407.58439)"
       sodipodi:type="arc"
       style="fill:none;stroke:#000000;stroke-width:8;stroke-linecap:butt;stroke-linejoin:round;stroke-miterlimit:3.79999995;stroke-opacity:1;stroke-dasharray:none"
       id="path3009-6-6-2"
       sodipodi:cx="94.285713"
       sodipodi:cy="129.50504"
       sodipodi:rx="62.857143"
       sodipodi:ry="60"
       d="m 157.14286,129.50504 c 0,33.13708 -28.14211,60 -62.857147,60 -34.715042,0 -62.857143,-26.86292 -62.857143,-60 0,-33.13709 28.142101,-60.000005 62.857143,-60.000005 34.705877,0 62.844187,26.84927 62.857137,59.977605"
       sodipodi:start="0"
       sodipodi:end="6.2828121"
       sodipodi:open="true" />
    <path
       transform="matrix(0.28890955,0,0,-0.28890955,418.71873,453.25917)"
       sodipodi:type="arc"
       style="fill:none;stroke:#000000;stroke-width:8;stroke-linecap:butt;stroke-linejoin:round;stroke-miterlimit:3.79999995;stroke-opacity:1;stroke-dasharray:none"
       id="path3009-6-6-1"
       sodipodi:cx="94.285713"
       sodipodi:cy="129.50504"
       sodipodi:rx="62.857143"
       sodipodi:ry="60"
       d="m 157.14286,129.50504 c 0,33.13708 -28.14211,60 -62.857147,60 -34.715042,0 -62.857143,-26.86292 -62.857143,-60 0,-33.13709 28.142101,-60.000005 62.857143,-60.000005 34.705877,0 62.844187,26.84927 62.857137,59.977605"
       sodipodi:start="0"
       sodipodi:end="6.2828121"
       sodipodi:open="true" />
    <path
       transform="matrix(0.28890955,0,0,0.28890955,483.1043,574.015)"
       sodipodi:type="arc"
       style="fill:none;stroke:#000000;stroke-width:8;stroke-linecap:butt;stroke-linejoin:round;stroke-miterlimit:3.79999995;stroke-opacity:1;stroke-dasharray:none"
       id="path3009-6-6-3"
       sodipodi:cx="94.285713"
       sodipodi:cy="129.50504"
       sodipodi:rx="62.857143"
       sodipodi:ry="60"
       d="m 157.14286,129.50504 c 0,33.13708 -28.14211,60 -62.857147,60 -34.715042,0 -62.857143,-26.86292 -62.857143,-60 0,-33.13709 28.142101,-60.000005 62.857143,-60.000005 34.705877,0 62.844187,26.84927 62.857137,59.977605"
       sodipodi:start="0"
       sodipodi:end="6.2828121"
       sodipodi:open="true" />
    <path
       transform="matrix(0.28890955,0,0,0.28890955,319.10335,614.10412)"
       sodipodi:type="arc"
       style="fill:none;stroke:#000000;stroke-width:8;stroke-linecap:butt;stroke-linejoin:round;stroke-miterlimit:3.79999995;stroke-opacity:1;stroke-dasharray:none"
       id="path3009-6-6-6"
       sodipodi:cx="94.285713"
       sodipodi:cy="129.50504"
       sodipodi:rx="62.857143"
       sodipodi:ry="60"
       d="m 157.14286,129.50504 c 0,33.13708 -28.14211,60 -62.857147,60 -34.715042,0 -62.857143,-26.86292 -62.857143,-60 0,-33.13709 28.142101,-60.000005 62.857143,-60.000005 34.705877,0 62.844187,26.84927 62.857137,59.977605"
       sodipodi:start="0"
       sodipodi:end="6.2828121"
       sodipodi:open="true" />
    <path
       transform="matrix(0.28890955,0,0,0.28890955,344.6146,682.13415)"
       sodipodi:type="arc"
       style="fill:none;stroke:#000000;stroke-width:8;stroke-linecap:butt;stroke-linejoin:round;stroke-miterlimit:3.79999995;stroke-opacity:1;stroke-dasharray:none"
       id="path3009-6-6-7"
       sodipodi:cx="94.285713"
       sodipodi:cy="129.50504"
       sodipodi:rx="62.857143"
       sodipodi:ry="60"
       d="m 157.14286,129.50504 c 0,33.13708 -28.14211,60 -62.857147,60 -34.715042,0 -62.857143,-26.86292 -62.857143,-60 0,-33.13709 28.142101,-60.000005 62.857143,-60.000005 34.705877,0 62.844187,26.84927 62.857137,59.977605"
       sodipodi:start="0"
       sodipodi:end="6.2828121"
       sodipodi:open="true" />
    <path
       transform="matrix(0.28890955,0,0,0.28890955,326.39228,463.46621)"
       sodipodi:type="arc"
       style="fill:none;stroke:#000000;stroke-width:8;stroke-linecap:butt;stroke-linejoin:round;stroke-miterlimit:3.79999995;stroke-opacity:1;stroke-dasharray:none"
       id="path3009-6-6-8"
       sodipodi:cx="94.285713"
       sodipodi:cy="129.50504"
       sodipodi:rx="62.857143"
       sodipodi:ry="60"
       d="m 157.14286,129.50504 c 0,33.13708 -28.14211,60 -62.857147,60 -34.715042,0 -62.857143,-26.86292 -62.857143,-60 0,-33.13709 28.142101,-60.000005 62.857143,-60.000005 34.705877,0 62.844187,26.84927 62.857137,59.977605"
       sodipodi:start="0"
       sodipodi:end="6.2828121"
       sodipodi:open="true" />
    <path
       transform="matrix(0.28890955,0,0,0.28890955,478.24501,521.77766)"
       sodipodi:type="arc"
       style="fill:none;stroke:#000000;stroke-width:8;stroke-linecap:butt;stroke-linejoin:round;stroke-miterlimit:3.79999995;stroke-opacity:1;stroke-dasharray:none"
       id="path3009-6-6-19"
       sodipodi:cx="94.285713"
       sodipodi:cy="129.50504"
       sodipodi:rx="62.857143"
       sodipodi:ry="60"
       d="m 157.14286,129.50504 c 0,33.13708 -28.14211,60 -62.857147,60 -34.715042,0 -62.857143,-26.86292 -62.857143,-60 0,-33.13709 28.142101,-60.000005 62.857143,-60.000005 34.705877,0 62.844187,26.84927 62.857137,59.977605"
       sodipodi:start="0"
       sodipodi:end="6.2828121"
       sodipodi:open="true" />
    <path
       transform="matrix(0.28890955,0,0,0.28890955,481.88947,626.25234)"
       sodipodi:type="arc"
       style="fill:none;stroke:#000000;stroke-width:8;stroke-linecap:butt;stroke-linejoin:round;stroke-miterlimit:3.79999995;stroke-opacity:1;stroke-dasharray:none"
       id="path3009-6-6-32"
       sodipodi:cx="94.285713"
       sodipodi:cy="129.50504"
       sodipodi:rx="62.857143"
       sodipodi:ry="60"
       d="m 157.14286,129.50504 c 0,33.13708 -28.14211,60 -62.857147,60 -34.715042,0 -62.857143,-26.86292 -62.857143,-60 0,-33.13709 28.142101,-60.000005 62.857143,-60.000005 34.705877,0 62.844187,26.84927 62.857137,59.977605"
       sodipodi:start="0"
       sodipodi:end="6.2828121"
       sodipodi:open="true" />
    <path
       transform="matrix(0.28890955,0,0,0.28890955,401.10381,718.09287)"
       sodipodi:type="arc"
       style="fill:none;stroke:#000000;stroke-width:8;stroke-linecap:butt;stroke-linejoin:round;stroke-miterlimit:3.79999995;stroke-opacity:1;stroke-dasharray:none"
       id="path3009-6-6-6-6"
       sodipodi:cx="94.285713"
       sodipodi:cy="129.50504"
       sodipodi:rx="62.857143"
       sodipodi:ry="60"
       d="m 157.14286,129.50504 c 0,33.13708 -28.14211,60 -62.857147,60 -34.715042,0 -62.857143,-26.86292 -62.857143,-60 0,-33.13709 28.142101,-60.000005 62.857143,-60.000005 34.705877,0 62.844187,26.84927 62.857137,59.977605"
       sodipodi:start="0"
       sodipodi:end="6.2828121"
       sodipodi:open="true" />
    <path
       transform="matrix(0.28890955,0,0,0.28890955,461.84491,680.43339)"
       sodipodi:type="arc"
       style="fill:none;stroke:#000000;stroke-width:8;stroke-linecap:butt;stroke-linejoin:round;stroke-miterlimit:3.79999995;stroke-opacity:1;stroke-dasharray:none"
       id="path3009-6-6-32-2"
       sodipodi:cx="94.285713"
       sodipodi:cy="129.50504"
       sodipodi:rx="62.857143"
       sodipodi:ry="60"
       d="m 157.14286,129.50504 c 0,33.13708 -28.14211,60 -62.857147,60 -34.715042,0 -62.857143,-26.86292 -62.857143,-60 0,-33.13709 28.142101,-60.000005 62.857143,-60.000005 34.705877,0 62.844187,26.84927 62.857137,59.977605"
       sodipodi:start="0"
       sodipodi:end="6.2828121"
       sodipodi:open="true" />
    <path
       transform="matrix(0.28890955,0,0,0.28890955,456.37822,409.52813)"
       sodipodi:type="arc"
       style="fill:none;stroke:#000000;stroke-width:8;stroke-linecap:butt;stroke-linejoin:round;stroke-miterlimit:3.79999995;stroke-opacity:1;stroke-dasharray:none"
       id="path3009-6-6-1-1"
       sodipodi:cx="94.285713"
       sodipodi:cy="129.50504"
       sodipodi:rx="62.857143"
       sodipodi:ry="60"
       d="m 157.14286,129.50504 c 0,33.13708 -28.14211,60 -62.857147,60 -34.715042,0 -62.857143,-26.86292 -62.857143,-60 0,-33.13709 28.142101,-60.000005 62.857143,-60.000005 34.705877,0 62.844187,26.84927 62.857137,59.977605"
       sodipodi:start="0"
       sodipodi:end="6.2828121"
       sodipodi:open="true" />
    <path
       transform="matrix(0.28890955,0,0,0.28890955,469.74127,462.98028)"
       sodipodi:type="arc"
       style="fill:none;stroke:#000000;stroke-width:8;stroke-linecap:butt;stroke-linejoin:round;stroke-miterlimit:3.79999995;stroke-opacity:1;stroke-dasharray:none"
       id="path3009-6-6-1-12"
       sodipodi:cx="94.285713"
       sodipodi:cy="129.50504"
       sodipodi:rx="62.857143"
       sodipodi:ry="60"
       d="m 157.14286,129.50504 c 0,33.13708 -28.14211,60 -62.857147,60 -34.715042,0 -62.857143,-26.86292 -62.857143,-60 0,-33.13709 28.142101,-60.000005 62.857143,-60.000005 34.705877,0 62.844187,26.84927 62.857137,59.977605"
       sodipodi:start="0"
       sodipodi:end="6.2828121"
       sodipodi:open="true" />
    <path
       transform="matrix(0.28890955,0,0,0.28890955,398.06676,517.64727)"
       sodipodi:type="arc"
       style="fill:none;stroke:#000000;stroke-width:8;stroke-linecap:butt;stroke-linejoin:round;stroke-miterlimit:3.79999995;stroke-opacity:1;stroke-dasharray:none"
       id="path3009-6-6-19-0"
       sodipodi:cx="94.285713"
       sodipodi:cy="129.50504"
       sodipodi:rx="62.857143"
       sodipodi:ry="60"
       d="m 157.14286,129.50504 c 0,33.13708 -28.14211,60 -62.857147,60 -34.715042,0 -62.857143,-26.86292 -62.857143,-60 0,-33.13709 28.142101,-60.000005 62.857143,-60.000005 34.705877,0 62.844187,26.84927 62.857137,59.977605"
       sodipodi:start="0"
       sodipodi:end="6.2828121"
       sodipodi:open="true" />
    <path
       transform="matrix(0.28890955,0,0,0.28890955,400.49641,583.24765)"
       sodipodi:type="arc"
       style="fill:none;stroke:#000000;stroke-width:8;stroke-linecap:butt;stroke-linejoin:round;stroke-miterlimit:3.79999995;stroke-opacity:1;stroke-dasharray:none"
       id="path3009-6-6-19-9"
       sodipodi:cx="94.285713"
       sodipodi:cy="129.50504"
       sodipodi:rx="62.857143"
       sodipodi:ry="60"
       d="m 157.14286,129.50504 c 0,33.13708 -28.14211,60 -62.857147,60 -34.715042,0 -62.857143,-26.86292 -62.857143,-60 0,-33.13709 28.142101,-60.000005 62.857143,-60.000005 34.705877,0 62.844187,26.84927 62.857137,59.977605"
       sodipodi:start="0"
       sodipodi:end="6.2828121"
       sodipodi:open="true" />
    <path
       transform="matrix(0.28890955,0,0,0.30220432,405.35571,656.84487)"
       sodipodi:type="arc"
       style="fill:none;stroke:#000000;stroke-width:8;stroke-linecap:butt;stroke-linejoin:round;stroke-miterlimit:3.79999995;stroke-opacity:1;stroke-dasharray:none"
       id="path3009-6-6-19-92"
       sodipodi:cx="94.285713"
       sodipodi:cy="129.50504"
       sodipodi:rx="62.857143"
       sodipodi:ry="60"
       d="m 157.14286,129.50504 c 0,33.13708 -28.14211,60 -62.857147,60 -34.715042,0 -62.857143,-26.86292 -62.857143,-60 0,-33.13709 28.142101,-60.000005 62.857143,-60.000005 34.705877,0 62.844187,26.84927 62.857137,59.977605"
       sodipodi:start="0"
       sodipodi:end="6.2828121"
       sodipodi:open="true" />
    <path
       transform="matrix(0.28890955,0,0,0.30220432,401.71123,445.46586)"
       sodipodi:type="arc"
       style="fill:none;stroke:#000000;stroke-width:8;stroke-linecap:butt;stroke-linejoin:round;stroke-miterlimit:3.79999995;stroke-opacity:1;stroke-dasharray:none"
       id="path3009-6-6-19-92-9"
       sodipodi:cx="94.285713"
       sodipodi:cy="129.50504"
       sodipodi:rx="62.857143"
       sodipodi:ry="60"
       d="m 157.14286,129.50504 c 0,33.13708 -28.14211,60 -62.857147,60 -34.715042,0 -62.857143,-26.86292 -62.857143,-60 0,-33.13709 28.142101,-60.000005 62.857143,-60.000005 34.705877,0 62.844187,26.84927 62.857137,59.977605"
       sodipodi:start="0"
       sodipodi:end="6.2828121"
       sodipodi:open="true" />
    <g
       id="g4562"
       transform="translate(1.0101525,0)">
      <text
         sodipodi:linespacing="125%"
         id="text3948"
         y="524.52246"
         x="67.325554"
         style="font-size:17.00750732px;font-style:normal;font-weight:normal;line-height:125%;letter-spacing:0px;word-spacing:0px;fill:#000000;fill-opacity:1;stroke:none;font-family:Sans"
         xml:space="preserve"><tspan
           y="524.52246"
           x="67.325554"
           id="tspan3950"
           sodipodi:role="line">website</tspan></text>
      <text
         sodipodi:linespacing="125%"
         id="text3948-9"
         y="482.67941"
         x="69.084846"
         style="font-size:17.00750732px;font-style:normal;font-weight:normal;line-height:125%;letter-spacing:0px;word-spacing:0px;fill:#000000;fill-opacity:1;stroke:none;font-family:Sans"
         xml:space="preserve"><tspan
           y="482.67941"
           x="69.084846"
           id="tspan3950-8"
           sodipodi:role="line">email</tspan></text>
      <text
         xml:space="preserve"
         style="font-size:28px;font-style:normal;font-weight:normal;line-height:125%;letter-spacing:0px;word-spacing:0px;fill:#000000;fill-opacity:1;stroke:none;font-family:Sans"
         x="57.831451"
         y="403.38605"
         id="text4709"
         sodipodi:linespacing="125%"><tspan
           sodipodi:role="line"
           id="tspan4711"
           x="57.831451"
           y="403.38605">Enspiral</tspan><tspan
           sodipodi:role="line"
           x="57.831451"
           y="438.38605"
           id="tspan4713">Craftworks</tspan></text>
    </g>
    <g
       id="g4572">
      <text
         sodipodi:linespacing="125%"
         id="text4265"
         y="549.75433"
         x="603.73358"
         style="font-size:17.00750732px;font-style:normal;font-weight:normal;line-height:125%;letter-spacing:0px;word-spacing:0px;fill:#000000;fill-opacity:1;stroke:none;font-family:Sans"
         xml:space="preserve"><tspan
           y="549.75433"
           x="603.73358"
           id="tspan4267"
           sodipodi:role="line">website</tspan></text>
      <text
         sodipodi:linespacing="125%"
         id="text4265-8"
         y="466.40259"
         x="604.49597"
         style="font-size:17.00750732px;font-style:normal;font-weight:normal;line-height:125%;letter-spacing:0px;word-spacing:0px;fill:#000000;fill-opacity:1;stroke:none;font-family:Sans"
         xml:space="preserve"><tspan
           y="466.40259"
           x="604.49597"
           id="tspan4267-3"
           sodipodi:role="line">email</tspan></text>
      <text
         xml:space="preserve"
         style="font-size:40px;font-style:normal;font-weight:normal;line-height:125%;letter-spacing:0px;word-spacing:0px;fill:#000000;fill-opacity:1;stroke:none;font-family:Sans"
         x="601.29352"
         y="417.52817"
         id="text4715"
         sodipodi:linespacing="125%"><tspan
           sodipodi:role="line"
           id="tspan4717"
           x="601.29352"
           y="417.52817">Me</tspan></text>
      <text
         xml:space="preserve"
         style="font-size:18px;font-style:normal;font-weight:normal;line-height:125%;letter-spacing:0px;word-spacing:0px;fill:#000000;fill-opacity:1;stroke:none;font-family:Sans"
         x="603.31384"
         y="508.44189"
         id="text4719"
         sodipodi:linespacing="125%"><tspan
           sodipodi:role="line"
           id="tspan4721"
           x="603.31384"
           y="508.44189"
           style="font-size:17px">password</tspan></text>
    </g>
    <rect
       style="fill:none;stroke:#000000;stroke-width:3.82668853;stroke-miterlimit:4;stroke-opacity:1;stroke-dasharray:none"
       id="rect4325"
       width="320.71298"
       height="451.91376"
       x="233.36493"
       y="360.69101" />
  </g>
</svg>
